<?xml version="1.0" encoding="UTF-8" standalone="no"?>
<!-- Created with Inkscape (http://www.inkscape.org/) -->

<svg
   xmlns:dc="http://purl.org/dc/elements/1.1/"
   xmlns:cc="http://creativecommons.org/ns#"
   xmlns:rdf="http://www.w3.org/1999/02/22-rdf-syntax-ns#"
   xmlns:svg="http://www.w3.org/2000/svg"
   xmlns="http://www.w3.org/2000/svg"
   xmlns:sodipodi="http://sodipodi.sourceforge.net/DTD/sodipodi-0.dtd"
   xmlns:inkscape="http://www.inkscape.org/namespaces/inkscape"
   id="svg8"
   version="1.1"
   viewBox="0 0 793.74997 793.75004"
   height="3000"
   width="3000"
   inkscape:version="0.92.1 r15371"
   sodipodi:docname="Grid.svg"
   inkscape:export-filename="C:\Users\Patrick Sy\Documents\_MY_STUFF_\College\Year 3\Term 1\MOBAPDE\Machine Project\Storyboards\Assets\Grid.png"
   inkscape:export-xdpi="96.000099"
   inkscape:export-ydpi="96.000099">
  <defs
     id="defs2" />
  <sodipodi:namedview
     inkscape:window-maximized="1"
     inkscape:window-y="-8"
     inkscape:window-x="-8"
     inkscape:window-height="987"
     inkscape:window-width="1680"
     units="px"
     showgrid="false"
     inkscape:current-layer="svg8"
     inkscape:document-units="px"
     inkscape:cy="771.65555"
     inkscape:cx="-205.87382"
     inkscape:zoom="0.175"
     inkscape:pageshadow="2"
     inkscape:pageopacity="0.0"
     borderopacity="1.0"
     bordercolor="#666666"
     pagecolor="#ffffff"
     id="base"
     inkscape:snap-page="true" />
  <metadata
     id="metadata5">
    <rdf:RDF>
      <cc:Work
         rdf:about="">
        <dc:format>image/svg+xml</dc:format>
        <dc:type
           rdf:resource="http://purl.org/dc/dcmitype/StillImage" />
        <dc:title></dc:title>
      </cc:Work>
    </rdf:RDF>
  </metadata>
  <g
     inkscape:label="Layer 1"
     inkscape:groupmode="layer"
     id="layer1"
     transform="translate(0,496.75002)"
     style="display:inline" />
  <path
     d="M 0,0 0,793.74997 M 13.229166,0 l 0,793.74997 M 26.458332,0 l 0,793.74997 M 39.687498,0 l 0,793.74997 M 52.916665,0 l 0,793.74997 M 66.145831,0 l 0,793.74997 M 79.374997,0 l 0,793.74997 M 92.604163,0 l 0,793.74997 M 105.83333,0 l 0,793.74997 M 119.0625,0 l 0,793.74997 M 132.29166,0 l 0,793.74997 M 145.52083,0 l 0,793.74997 M 158.74999,0 l 0,793.74997 M 171.97916,0 l 0,793.74997 M 185.20833,0 l 0,793.74997 M 198.43749,0 l 0,793.74997 M 211.66666,0 l 0,793.74997 M 224.89582,0 l 0,793.74997 M 238.12499,0 l 0,793.74997 M 251.35416,0 l 0,793.74997 M 264.58332,0 l 0,793.74997 M 277.81249,0 l 0,793.74997 M 291.04166,0 l 0,793.74997 M 304.27082,0 l 0,793.74997 M 317.49999,0 l 0,793.74997 M 330.72915,0 l 0,793.74997 M 343.95832,0 l 0,793.74997 M 357.18749,0 l 0,793.74997 M 370.41665,0 l 0,793.74997 M 383.64582,0 l 0,793.74997 M 396.87499,0 l 0,793.74997 M 410.10415,0 l 0,793.74997 M 423.33332,0 l 0,793.74997 M 436.56248,0 l 0,793.74997 M 449.79165,0 l 0,793.74997 M 463.02082,0 l 0,793.74997 M 476.24998,0 l 0,793.74997 M 489.47915,0 l 0,793.74997 M 502.70831,0 l 0,793.74997 M 515.93748,0 l 0,793.74997 M 529.16665,0 l 0,793.74997 M 542.39581,0 l 0,793.74997 M 555.62498,0 l 0,793.74997 M 568.85415,0 l 0,793.74997 M 582.08331,0 l 0,793.74997 M 595.31248,0 l 0,793.74997 M 608.54164,0 l 0,793.74997 M 621.77081,0 l 0,793.74997 M 634.99998,0 l 0,793.74997 M 648.22914,0 l 0,793.74997 M 661.45831,0 l 0,793.74997 M 674.68747,0 l 0,793.74997 M 687.91664,0 l 0,793.74997 M 701.14581,0 l 0,793.74997 M 714.37497,0 l 0,793.74997 M 727.60414,0 l 0,793.74997 M 740.83331,0 l 0,793.74997 M 754.06247,0 l 0,793.74997 M 767.29164,0 l 0,793.74997 M 780.5208,0 l 0,793.74997 M 0,0 793.74997,0 M 0,13.229166 l 793.74997,0 M 0,26.458332 l 793.74997,0 M 0,39.687498 l 793.74997,0 M 0,52.916665 l 793.74997,0 M 0,66.145831 l 793.74997,0 M 0,79.374997 l 793.74997,0 M 0,92.604163 l 793.74997,0 M 0,105.83333 l 793.74997,0 M 0,119.0625 l 793.74997,0 M 0,132.29166 l 793.74997,0 M 0,145.52083 l 793.74997,0 M 0,158.74999 l 793.74997,0 M 0,171.97916 l 793.74997,0 M 0,185.20833 l 793.74997,0 M 0,198.43749 l 793.74997,0 M 0,211.66666 l 793.74997,0 M 0,224.89582 l 793.74997,0 M 0,238.12499 l 793.74997,0 M 0,251.35416 l 793.74997,0 M 0,264.58332 l 793.74997,0 M 0,277.81249 l 793.74997,0 M 0,291.04166 l 793.74997,0 M 0,304.27082 l 793.74997,0 M 0,317.49999 l 793.74997,0 M 0,330.72915 l 793.74997,0 M 0,343.95832 l 793.74997,0 M 0,357.18749 l 793.74997,0 M 0,370.41665 l 793.74997,0 M 0,383.64582 l 793.74997,0 M 0,396.87499 l 793.74997,0 M 0,410.10415 l 793.74997,0 M 0,423.33332 l 793.74997,0 M 0,436.56248 l 793.74997,0 M 0,449.79165 l 793.74997,0 M 0,463.02082 l 793.74997,0 M 0,476.24998 l 793.74997,0 M 0,489.47915 l 793.74997,0 M 0,502.70831 l 793.74997,0 M 0,515.93748 l 793.74997,0 M 0,529.16665 l 793.74997,0 M 0,542.39581 l 793.74997,0 M 0,555.62498 l 793.74997,0 M 0,568.85415 l 793.74997,0 M 0,582.08331 l 793.74997,0 M 0,595.31248 l 793.74997,0 M 0,608.54164 l 793.74997,0 M 0,621.77081 l 793.74997,0 M 0,634.99998 l 793.74997,0 M 0,648.22914 l 793.74997,0 M 0,661.45831 l 793.74997,0 M 0,674.68747 l 793.74997,0 M 0,687.91664 l 793.74997,0 M 0,701.14581 l 793.74997,0 M 0,714.37497 l 793.74997,0 M 0,727.60414 l 793.74997,0 M 0,740.83331 l 793.74997,0 M 0,754.06247 l 793.74997,0 M 0,767.29164 l 793.74997,0 M 0,780.5208 l 793.74997,0"
     style="fill:none;stroke:#000000;stroke-width:0.529167px"
     id="path12621" />
</svg>
